<svg xmlns="http://www.w3.org/2000/svg" viewBox="0 0 40 40" aria-hidden="true">
  <rect x="2" y="2" width="7.5" height="7.5" rx="1" fill="#C9A9E0" stroke="#4B3566" stroke-width="1.5" />
  <rect x="11.5" y="2" width="7.5" height="7.5" rx="1" fill="#C9A9E0" stroke="#4B3566" stroke-width="1.5" />
  <rect x="21" y="2" width="7.5" height="7.5" rx="1" fill="#C9A9E0" stroke="#4B3566" stroke-width="1.5" />
  <rect x="30.5" y="2" width="7.5" height="7.5" rx="1" fill="#C9A9E0" stroke="#4B3566" stroke-width="1.5" />
  <rect x="2" y="11.5" width="7.5" height="7.5" rx="1" fill="#C9A9E0" stroke="#4B3566" stroke-width="1.5" />
  <rect x="11.5" y="11.5" width="7.5" height="7.5" rx="1" fill="#C9A9E0" stroke="#4B3566" stroke-width="1.5" />
  <rect x="21" y="11.5" width="7.5" height="7.5" rx="1" fill="#C9A9E0" stroke="#4B3566" stroke-width="1.5" />
  <rect x="30.5" y="11.5" width="7.5" height="7.5" rx="1" fill="#C9A9E0" stroke="#4B3566" stroke-width="1.5" />
  <rect x="2" y="21" width="7.5" height="7.5" rx="1" fill="#C9A9E0" stroke="#4B3566" stroke-width="1.5" />
  <rect x="11.5" y="21" width="7.5" height="7.5" rx="1" fill="#C9A9E0" stroke="#4B3566" stroke-width="1.5" />
  <rect x="21" y="21" width="7.5" height="7.5" rx="1" fill="#C9A9E0" stroke="#4B3566" stroke-width="1.5" />
  <rect x="30.5" y="21" width="7.5" height="7.5" rx="1" fill="#C9A9E0" stroke="#4B3566" stroke-width="1.5" />
  <rect x="2" y="30.5" width="7.5" height="7.5" rx="1" fill="#C9A9E0" stroke="#4B3566" stroke-width="1.5" />
  <rect x="11.5" y="30.5" width="7.5" height="7.5" rx="1" fill="#C9A9E0" stroke="#4B3566" stroke-width="1.5" />
  <rect x="21" y="30.5" width="7.5" height="7.5" rx="1" fill="#C9A9E0" stroke="#4B3566" stroke-width="1.5" />
  <rect x="30.5" y="30.5" width="7.5" height="7.5" rx="1" fill="#C9A9E0" stroke="#4B3566" stroke-width="1.5" />
</svg>
